<svg width="40" height="40" viewBox="0 0 40 40" fill="none" xmlns="http://www.w3.org/2000/svg">
<rect width="40" height="40" rx="20" fill="#3343E1"/>
<path d="M27.5355 25.0706C27.5355 25.785 26.8212 26.5787 25.6306 27.0549C24.4401 27.5311 20.6303 28.6423 16.0268 24.1182L15.9474 24.0388C11.4232 19.4353 12.6138 15.5461 13.0107 14.4349C13.4075 13.3237 14.2806 12.53 14.9949 12.53C16.2649 12.53 17.9317 13.9587 18.4079 15.0699C18.646 15.5461 18.646 16.1811 18.2491 16.5779C18.0904 16.7367 17.7729 16.8954 17.5348 17.1335C17.0586 17.451 16.503 17.7685 16.503 18.3241C16.503 18.8797 16.9792 19.9115 18.1698 21.1021L19.0428 21.8958C20.2334 23.0863 21.1859 23.6419 21.8208 23.5626C22.4558 23.4832 22.6939 23.007 23.0114 22.5307C23.1701 22.2926 23.3289 22.0545 23.567 21.8164C23.8051 21.5783 24.202 21.3402 25.075 21.6577C26.1862 22.1339 27.5355 23.8007 27.5355 25.0706Z" fill="white"/>
</svg>
